<?xml version="1.0" encoding="UTF-8"?>
<svg version="1.1" xmlns="http://www.w3.org/2000/svg" width="178" height="74">
<path d="M0 0 C58.74 0 117.48 0 178 0 C178 24.42 178 48.84 178 74 C119.26 74 60.52 74 0 74 C0 49.58 0 25.16 0 0 Z " fill="#3287D9" transform="translate(0,0)"/>
<path d="M0 0 C19.14 0 38.28 0 58 0 C58.90899606 3.63598422 59.12893047 6.34513325 59.1328125 10.0546875 C59.13474609 11.2921875 59.13667969 12.5296875 59.13867188 13.8046875 C59.13454544 15.16145971 59.12997632 16.51823064 59.125 17.875 C59.12367065 18.90463867 59.12367065 18.90463867 59.12231445 19.95507812 C59.09537022 37.97869497 58.52985763 55.98484071 58 74 C38.86 74 19.72 74 0 74 C0 49.58 0 25.16 0 0 Z " fill="#378DD9" transform="translate(0,0)"/>
<path d="M0 0 C4.29 0.33 8.58 0.66 13 1 C13.66 4.3 14.32 7.6 15 11 C15.99 8.36 16.98 5.72 18 3 C22 4 22 4 23.125 5.7421875 C23.41375 6.44601563 23.7025 7.14984375 24 7.875 C25.50257059 11.20212059 26.73868348 13.13639056 30 15 C30.28875 14.4225 30.5775 13.845 30.875 13.25 C31.91666667 11.16666667 32.95833333 9.08333333 34 7 C34.99 7 35.98 7 37 7 C37 5.68 37 4.36 37 3 C37.66 3 38.32 3 39 3 C39.66 6.96 40.32 10.92 41 15 C41.99 15 42.98 15 44 15 C43.95875 13.741875 43.9175 12.48375 43.875 11.1875 C43.7609626 7.70935927 43.94074319 7.08888522 46 4 C47.66014616 3.63557767 49.32706064 3.30027117 51 3 C51.33 2.34 51.66 1.68 52 1 C52.66 1 53.32 1 54 1 C54 12.88 54 24.76 54 37 C36.18 37 18.36 37 0 37 C0 24.79 0 12.58 0 0 Z " fill="#3287D9" transform="translate(0,37)"/>
<path d="M0 0 C1.32 0 2.64 0 4 0 C4 1.65 4 3.3 4 5 C3.01 5 2.02 5 1 5 C1 6.32 1 7.64 1 9 C2.98 8.67 4.96 8.34 7 8 C8.32 11.3 9.64 14.6 11 18 C11.99 14.7 12.98 11.4 14 8 C18.29 8 22.58 8 27 8 C29.25 13.625 29.25 13.625 29.1953125 17.20703125 C29.18886719 17.95791016 29.18242188 18.70878906 29.17578125 19.48242188 C29.15902344 20.25134766 29.14226562 21.02027344 29.125 21.8125 C29.11597656 22.60076172 29.10695312 23.38902344 29.09765625 24.20117188 C29.07422504 26.13424666 29.03835838 28.0671638 29 30 C25.49852959 31.1671568 22.67329964 31.13357453 19 31 C18.34 30.67 17.68 30.34 17 30 C16.375 26.9375 16.375 26.9375 16 24 C15.34 24 14.68 24 14 24 C13.81824219 25.03060547 13.81824219 25.03060547 13.6328125 26.08203125 C13.46523437 26.98308594 13.29765625 27.88414063 13.125 28.8125 C12.88136719 30.15248047 12.88136719 30.15248047 12.6328125 31.51953125 C12 34 12 34 10 37 C8.0546875 37.29296875 8.0546875 37.29296875 5.875 37.1875 C4.59625 37.125625 3.3175 37.06375 2 37 C1.566875 36.0409375 1.566875 36.0409375 1.125 35.0625 C0.17176549 32.84793921 0.17176549 32.84793921 -2 32 C-3.67654729 32.27942455 -5.34608154 32.60828247 -7 33 C-9.62386487 29.93882432 -10 29.26826873 -10 25 C-11.98 25 -13.96 25 -16 25 C-15.938125 26.175625 -15.938125 26.175625 -15.875 27.375 C-16 30 -16 30 -18 32 C-20.125 31.625 -20.125 31.625 -22 31 C-22.32641036 26.64786192 -21.57439945 23.57813692 -19.93359375 19.56640625 C-17.85751381 13.85935805 -16.5081864 7.87963023 -15 2 C-13.35 2 -11.7 2 -10 2 C-9.01 4.31 -8.02 6.62 -7 9 C-5.68 9 -4.36 9 -3 9 C-2.87625 7.88625 -2.7525 6.7725 -2.625 5.625 C-2 2 -2 2 0 0 Z " fill="#7EE9B6" transform="translate(83,19)"/>
<path d="M0 0 C2.81237541 -0.35974895 2.81237541 -0.35974895 5 -1 C7.04795423 0.9626228 7.94976638 2.4277307 8.19921875 5.26953125 C8.18858877 7.51954383 8.12958525 9.75385562 8 12 C9.32 12 10.64 12 12 12 C12.66 8.7 13.32 5.4 14 2 C17.00617269 5.00617269 16.59585316 7.82381598 17 12 C18.32 12 19.64 12 21 12 C21 12.66 21 13.32 21 14 C19.33388095 14.042721 17.66617115 14.04063832 16 14 C15.505 13.505 15.505 13.505 15 13 C14.67 17.95 14.34 22.9 14 28 C13.01 28 12.02 28 11 28 C8.39981184 24.09971775 8.84914486 20.52565431 9 16 C8.34 16 7.68 16 7 16 C7 17.32 7 18.64 7 20 C6.01 20 5.02 20 4 20 C3.71125 20.763125 3.4225 21.52625 3.125 22.3125 C2 25 2 25 0 28 C-4.21779303 26.49364535 -5.7747674 23.75987578 -8 20 C-8.33 19.01 -8.66 18.02 -9 17 C-9.99 16.67 -10.98 16.34 -12 16 C-12.12375 16.721875 -12.2475 17.44375 -12.375 18.1875 C-12.9904931 20.95721894 -13.88444374 23.3970354 -15 26 C-15.33 26 -15.66 26 -16 26 C-16.33 22.04 -16.66 18.08 -17 14 C-19.31 14 -21.62 14 -24 14 C-24 13.01 -24 12.02 -24 11 C-22.68 11 -21.36 11 -20 11 C-19.67 8.36 -19.34 5.72 -19 3 C-18.01 3 -17.02 3 -16 3 C-15.67 5.31 -15.34 7.62 -15 10 C-13.68 10.33 -12.36 10.66 -11 11 C-10.96261719 10.30132812 -10.92523438 9.60265625 -10.88671875 8.8828125 C-10.82097656 7.97273438 -10.75523438 7.06265625 -10.6875 6.125 C-10.62949219 5.22007813 -10.57148438 4.31515625 -10.51171875 3.3828125 C-9.24985115 -2.49305955 -4.58258802 -0.71109124 0 0 Z " fill="#3287D7" transform="translate(30,24)"/>
<path d="M0 0 C1.65 0 3.3 0 5 0 C5.99 2.31 6.98 4.62 8 7 C8.99 7 9.98 7 11 7 C11.78688445 9.77723925 12.11949924 12.22610077 12.09765625 15.109375 C12.09443359 15.86347656 12.09121094 16.61757813 12.08789062 17.39453125 C12.07951172 18.17183594 12.07113281 18.94914062 12.0625 19.75 C12.05798828 20.54277344 12.05347656 21.33554687 12.04882812 22.15234375 C12.03708565 24.10159508 12.01915146 26.05080738 12 28 C13.32 28 14.64 28 16 28 C16 22.72 16 17.44 16 12 C17.32 12.33 18.64 12.66 20 13 C22.69217063 18.58376131 23.58730423 23.85225618 24 30 C22.68 30.33 21.36 30.66 20 31 C20 32.32 20 33.64 20 35 C19.01 35 18.02 35 17 35 C16.566875 34.0409375 16.566875 34.0409375 16.125 33.0625 C15.17176549 30.84793921 15.17176549 30.84793921 13 30 C11.32345271 30.27942455 9.65391846 30.60828247 8 31 C5.37613513 27.93882432 5 27.26826873 5 23 C3.02 23 1.04 23 -1 23 C-0.938125 24.175625 -0.938125 24.175625 -0.875 25.375 C-1 28 -1 28 -3 30 C-5.125 29.625 -5.125 29.625 -7 29 C-7.32641036 24.64786192 -6.57439945 21.57813692 -4.93359375 17.56640625 C-2.85751381 11.85935805 -1.5081864 5.87963023 0 0 Z " fill="#3994C1" transform="translate(68,21)"/>
<path d="M0 0 C1.65 0 3.3 0 5 0 C6.125 7.75 6.125 7.75 5 10 C4.8938877 11.82728675 4.84461193 13.65802968 4.82421875 15.48828125 C4.80037109 16.58720703 4.77652344 17.68613281 4.75195312 18.81835938 C4.70920393 21.13588413 4.67783471 23.45364851 4.65820312 25.77148438 C4.44588071 34.21994148 4.44588071 34.21994148 2.12890625 38.2734375 C0 40 0 40 -2.75 40.3125 C-3.4925 40.209375 -4.235 40.10625 -5 40 C-5 37.69 -5 35.38 -5 33 C-3.02 32.505 -3.02 32.505 -1 32 C-1.33 30.68 -1.66 29.36 -2 28 C-2.99 28.33 -3.98 28.66 -5 29 C-5 29.66 -5 30.32 -5 31 C-8.375 31.125 -8.375 31.125 -12 31 C-15.3499798 27.6500202 -15.15599266 24.08746819 -15.1875 19.5 C-15.20167969 18.5615625 -15.21585938 17.623125 -15.23046875 16.65625 C-14.99043851 13.88979982 -14.55543898 12.2889403 -13 10 C-10.125 9 -10.125 9 -7 9 C-4.11357527 11.18432142 -3.14898802 12.55303594 -2 16 C-1.34 10.72 -0.68 5.44 0 0 Z " fill="#45A3BD" transform="translate(156,18)"/>
<path d="M0 0 C4.29 0 8.58 0 13 0 C15.25 5.625 15.25 5.625 15.1953125 9.20703125 C15.18564453 10.33334961 15.18564453 10.33334961 15.17578125 11.48242188 C15.15902344 12.25134766 15.14226562 13.02027344 15.125 13.8125 C15.11597656 14.60076172 15.10695313 15.38902344 15.09765625 16.20117188 C15.07422504 18.13424666 15.03835838 20.0671638 15 22 C11.49852959 23.1671568 8.67329964 23.13357453 5 23 C4.34 22.67 3.68 22.34 3 22 C2.66666667 20 2.33333333 18 2 16 C1.34 15.67 0.68 15.34 0 15 C0.89908257 7.42201835 0.89908257 7.42201835 1.6875 4.125 C1.790625 3.42375 1.89375 2.7225 2 2 C1.34 1.34 0.68 0.68 0 0 Z " fill="#50B1BB" transform="translate(97,27)"/>
<path d="M0 0 C2.81237541 -0.35974895 2.81237541 -0.35974895 5 -1 C7.04795423 0.9626228 7.94976638 2.4277307 8.19921875 5.26953125 C8.18858877 7.51954383 8.12958525 9.75385562 8 12 C9.32 12 10.64 12 12 12 C12.66 8.7 13.32 5.4 14 2 C17.00617269 5.00617269 16.59585316 7.82381598 17 12 C18.32 12 19.64 12 21 12 C21 12.66 21 13.32 21 14 C19.33388095 14.042721 17.66617115 14.04063832 16 14 C15.505 13.505 15.505 13.505 15 13 C14.95101562 13.77085938 14.90203125 14.54171875 14.8515625 15.3359375 C14.77679688 16.33882812 14.70203125 17.34171875 14.625 18.375 C14.55539063 19.37273438 14.48578125 20.37046875 14.4140625 21.3984375 C14 24 14 24 12 26 C11.34 22.7 10.68 19.4 10 16 C8.68 15.67 7.36 15.34 6 15 C5.505 8.565 5.505 8.565 5 2 C1.16263678 2.95934081 0.40339772 3.23609263 -2 6 C-2.66 5.01 -3.32 4.02 -4 3 C-5.32 3.33 -6.64 3.66 -8 4 C-8.33 7.63 -8.66 11.26 -9 15 C-10.32 15 -11.64 15 -13 15 C-13.04898437 15.62648438 -13.09796875 16.25296875 -13.1484375 16.8984375 C-13.22320312 17.71570313 -13.29796875 18.53296875 -13.375 19.375 C-13.44460937 20.18710937 -13.51421875 20.99921875 -13.5859375 21.8359375 C-14 24 -14 24 -16 26 C-16.33 22.04 -16.66 18.08 -17 14 C-19.31 14 -21.62 14 -24 14 C-24 13.01 -24 12.02 -24 11 C-22.68 11 -21.36 11 -20 11 C-19.67 8.36 -19.34 5.72 -19 3 C-18.01 3 -17.02 3 -16 3 C-15.67 5.31 -15.34 7.62 -15 10 C-13.68 10.33 -12.36 10.66 -11 11 C-10.96261719 10.30132812 -10.92523438 9.60265625 -10.88671875 8.8828125 C-10.82097656 7.97273438 -10.75523438 7.06265625 -10.6875 6.125 C-10.62949219 5.22007813 -10.57148438 4.31515625 -10.51171875 3.3828125 C-9.24985115 -2.49305955 -4.58258802 -0.71109124 0 0 Z " fill="#79E0C1" transform="translate(30,24)"/>
<path d="M0 0 C1.32 0.33 2.64 0.66 4 1 C5.23046875 3.6875 5.23046875 3.6875 6.1875 7 C7.04568919 10.79705181 7.04568919 10.79705181 9 14 C10.65 9.38 12.3 4.76 14 0 C14.99 0 15.98 0 17 0 C17 9.24 17 18.48 17 28 C16.01 28 15.02 28 14 28 C13.67 23.38 13.34 18.76 13 14 C12.01 16.97 11.02 19.94 10 23 C9.01 23 8.02 23 7 23 C6.01 20.03 5.02 17.06 4 14 C3.67 18.29 3.34 22.58 3 27 C2.01 27 1.02 27 0 27 C0 18.09 0 9.18 0 0 Z " fill="#83EEBA" transform="translate(121,21)"/>
<path d="M0 0 C1.32 0 2.64 0 4 0 C9.55580866 18.82004556 9.55580866 18.82004556 10 28 C9.01 28 8.02 28 7 28 C6.67 26.02 6.34 24.04 6 22 C3.36 22 0.72 22 -2 22 C-2 23.65 -2 25.3 -2 27 C-3.32 27.33 -4.64 27.66 -6 28 C-5.42100187 21.40474547 -4.20265263 15.3108382 -2.4375 8.9375 C-2.20353516 8.07189453 -1.96957031 7.20628906 -1.72851562 6.31445312 C-1.1582666 4.20802305 -0.57998166 2.10377111 0 0 Z " fill="#7FEAB8" transform="translate(68,21)"/>
<path d="M0 0 C1.640625 1.1484375 1.640625 1.1484375 3 3 C3.36328125 5.9609375 3.36328125 5.9609375 3.3125 9.375 C3.30863281 10.49648438 3.30476562 11.61796875 3.30078125 12.7734375 C3.00825742 15.91142036 2.33267928 18.16473811 1 21 C-2.375 21.125 -2.375 21.125 -6 21 C-9.3499798 17.6500202 -9.15599266 14.08746819 -9.1875 9.5 C-9.20167969 8.5615625 -9.21585938 7.623125 -9.23046875 6.65625 C-8.99184129 3.90596744 -8.49256307 2.30430789 -7 0 C-4.26634878 -1.36682561 -2.89333621 -0.84683011 0 0 Z " fill="#82EDB7" transform="translate(150,28)"/>
<path d="M0 0 C0.33 0 0.66 0 1 0 C1 22.11 1 44.22 1 67 C1.66 67 2.32 67 3 67 C3 44.89 3 22.78 3 0 C3.33 0 3.66 0 4 0 C4 22.77 4 45.54 4 69 C2.68 69 1.36 69 0 69 C0 57.12 0 45.24 0 33 C-0.66 33 -1.32 33 -2 33 C-2.33 33.99 -2.66 34.98 -3 36 C-3.78375 36.12375 -4.5675 36.2475 -5.375 36.375 C-8.14057822 36.79117993 -8.14057822 36.79117993 -10 39 C-10 36.69 -10 34.38 -10 32 C-9.34 31.67 -8.68 31.34 -8 31 C-8 31.66 -8 32.32 -8 33 C-6.35 33 -4.7 33 -3 33 C-3 32.34 -3 31.68 -3 31 C-4.32 31 -5.64 31 -7 31 C-7.66 27.7 -8.32 24.4 -9 21 C-8.34 21 -7.68 21 -7 21 C-5.50178941 24.37097383 -5 26.20442119 -5 30 C-3.35 30.33 -1.7 30.66 0 31 C0 20.77 0 10.54 0 0 Z " fill="#338EBA" transform="translate(54,5)"/>
<path d="M0 0 C3.125 0.375 3.125 0.375 4.80859375 2.34765625 C6.57216638 6.40334998 6.45519065 9.82262957 6.3125 14.1875 C6.29896484 14.97576172 6.28542969 15.76402344 6.27148438 16.57617188 C6.23633456 18.50941169 6.18253361 20.44229682 6.125 22.375 C4.66757537 22.45596803 3.20887193 22.51417774 1.75 22.5625 C0.93789062 22.59730469 0.12578125 22.63210937 -0.7109375 22.66796875 C-1.42507812 22.57128906 -2.13921875 22.47460938 -2.875 22.375 C-5.58732939 18.30650591 -5.18199887 16.21023216 -4.875 11.375 C-2.875 9.375 -2.875 9.375 -0.25 9.25 C0.53375 9.29125 1.3175 9.3325 2.125 9.375 C1.795 8.385 1.465 7.395 1.125 6.375 C-0.525 6.375 -2.175 6.375 -3.875 6.375 C-3.917721 4.70888095 -3.91563832 3.04117115 -3.875 1.375 C-2.875 0.375 -2.875 0.375 0 0 Z " fill="#7AE3BD" transform="translate(166.875,26.625)"/>
<path d="M0 0 C1.32 0 2.64 0 4 0 C5.32229189 2.64458379 5.09677194 4.67761301 5.0625 7.625 C5.05347656 8.62789062 5.04445313 9.63078125 5.03515625 10.6640625 C5.02355469 11.43492188 5.01195312 12.20578125 5 13 C6.65 13.33 8.3 13.66 10 14 C10.33 16.64 10.66 19.28 11 22 C11.66 22 12.32 22 13 22 C13 23.32 13 24.64 13 26 C12.01 26 11.02 26 10 26 C7.39981184 22.09971775 7.84914486 18.52565431 8 14 C7.34 14 6.68 14 6 14 C6 15.32 6 16.64 6 18 C5.01 18 4.02 18 3 18 C2.71125 18.763125 2.4225 19.52625 2.125 20.3125 C1 23 1 23 -1 26 C-5.20390632 24.49860488 -6.89110738 21.82724957 -9 18 C-8.505 16.515 -8.505 16.515 -8 15 C-6.02 15.66 -4.04 16.32 -2 17 C-1.67 15.35 -1.34 13.7 -1 12 C-0.34 12 0.32 12 1 12 C1 12.66 1 13.32 1 14 C1.66 13.67 2.32 13.34 3 13 C3.46651207 10.87423218 3.46651207 10.87423218 3.625 8.4375 C3.69976562 7.61121094 3.77453125 6.78492188 3.8515625 5.93359375 C3.90054688 5.29550781 3.94953125 4.65742188 4 4 C2.35 4.66 0.7 5.32 -1 6 C-1.66 5.34 -2.32 4.68 -3 4 C-1.75 2 -1.75 2 0 0 Z " fill="#3993C4" transform="translate(31,26)"/>
<path d="M0 0 C0.99 0.33 1.98 0.66 3 1 C2.21910705 4.9397165 1.42345264 8.87630791 0.625 12.8125 C0.40328125 13.93205078 0.1815625 15.05160156 -0.046875 16.20507812 C-0.26601562 17.27822266 -0.48515625 18.35136719 -0.7109375 19.45703125 C-0.90993652 20.44678955 -1.10893555 21.43654785 -1.31396484 22.45629883 C-2 25 -2 25 -4 28 C-6.625 28.1875 -6.625 28.1875 -9 28 C-9 26.68 -9 25.36 -9 24 C-8.01 23.67 -7.02 23.34 -6 23 C-6.33 18.38 -6.66 13.76 -7 9 C-6.34 8.67 -5.68 8.34 -5 8 C-4.67 8.99 -4.34 9.98 -4 11 C-2.68 7.37 -1.36 3.74 0 0 Z " fill="#7DE7B8" transform="translate(97,28)"/>
<path d="M0 0 C3.5625 0.1875 3.5625 0.1875 5.5625 2.1875 C5.78955078 4.06689453 5.78955078 4.06689453 5.7578125 6.3203125 C5.74814453 7.52880859 5.74814453 7.52880859 5.73828125 8.76171875 C5.72152344 9.60347656 5.70476562 10.44523437 5.6875 11.3125 C5.67847656 12.16199219 5.66945313 13.01148438 5.66015625 13.88671875 C5.63655647 15.98709884 5.60068483 18.08733444 5.5625 20.1875 C1.6025 20.6825 1.6025 20.6825 -2.4375 21.1875 C-2.7675 19.5375 -3.0975 17.8875 -3.4375 16.1875 C-1.7875 16.1875 -0.1375 16.1875 1.5625 16.1875 C1.8925 14.8675 2.2225 13.5475 2.5625 12.1875 C0.9125 12.1875 -0.7375 12.1875 -2.4375 12.1875 C-2.4375 11.5275 -2.4375 10.8675 -2.4375 10.1875 C-0.7875 10.1875 0.8625 10.1875 2.5625 10.1875 C2.2325 8.5375 1.9025 6.8875 1.5625 5.1875 C-0.0875 5.1875 -1.7375 5.1875 -3.4375 5.1875 C-4 3.25 -4 3.25 -4.4375 1.1875 C-3.4375 0.1875 -3.4375 0.1875 0 0 Z " fill="#84F0B2" transform="translate(105.4375,27.8125)"/>
<path d="M0 0 C0.99 0 1.98 0 3 0 C3.05783842 4.29161047 3.0935412 8.58312145 3.125 12.875 C3.14175781 14.09832031 3.15851563 15.32164063 3.17578125 16.58203125 C3.18222656 17.74863281 3.18867188 18.91523437 3.1953125 20.1171875 C3.20578613 21.19597168 3.21625977 22.27475586 3.22705078 23.38623047 C3 26 3 26 1 28 C-0.32 28 -1.64 28 -3 28 C-3 26.68 -3 25.36 -3 24 C-2.01 24 -1.02 24 0 24 C0 16.08 0 8.16 0 0 Z " fill="#84EDC0" transform="translate(156,28)"/>
<path d="M0 0 C2 1 2 1 2.8515625 3.06640625 C3.10679688 3.89011719 3.36203125 4.71382812 3.625 5.5625 C3.88539062 6.38878906 4.14578125 7.21507812 4.4140625 8.06640625 C4.60742188 8.70449219 4.80078125 9.34257813 5 10 C7.64465038 6.8745041 8.84414715 3.91211733 10 0 C10.33 0 10.66 0 11 0 C11 4.95 11 9.9 11 15 C10.67 15 10.34 15 10 15 C9.67 13.35 9.34 11.7 9 10 C8.67 10.66 8.34 11.32 8 12 C7.195625 12.12375 6.39125 12.2475 5.5625 12.375 C2.84016601 12.72567164 2.84016601 12.72567164 1.6875 15.0625 C1.460625 15.701875 1.23375 16.34125 1 17 C-0.32 16.34 -1.64 15.68 -3 15 C-2.01 14.67 -1.02 14.34 0 14 C0 9.38 0 4.76 0 0 Z " fill="#43A0C1" transform="translate(124,34)"/>
<path d="M0 0 C0.99 0 1.98 0 3 0 C3 1.65 3 3.3 3 5 C4.65 4.67 6.3 4.34 8 4 C8.33 5.32 8.66 6.64 9 8 C7.02 8.66 5.04 9.32 3 10 C3 13.3 3 16.6 3 20 C2.34 20 1.68 20 1 20 C1 21.98 1 23.96 1 26 C-0.98 26.99 -0.98 26.99 -3 28 C-2.01 26.515 -2.01 26.515 -1 25 C-0.63201307 22.28924456 -0.63201307 22.28924456 -0.5859375 19.23828125 C-0.54726562 18.12001953 -0.50859375 17.00175781 -0.46875 15.84960938 C-0.4378125 14.68236328 -0.406875 13.51511719 -0.375 12.3125 C-0.33632812 11.13365234 -0.29765625 9.95480469 -0.2578125 8.74023438 C-0.16345609 5.82698023 -0.07786839 2.91373393 0 0 Z " fill="#3690C1" transform="translate(160,28)"/>
<path d="M0 0 C1.32 0 2.64 0 4 0 C4 0.66 4 1.32 4 2 C3.01 2 2.02 2 1 2 C1 11.24 1 20.48 1 30 C1.99 30.33 2.98 30.66 4 31 C4 31.66 4 32.32 4 33 C0.125 31.125 0.125 31.125 -1 30 C-1.15740605 28.29436222 -1.25093392 26.58272756 -1.31640625 24.87109375 C-1.35830078 23.83662109 -1.40019531 22.80214844 -1.44335938 21.73632812 C-1.48267578 20.64771484 -1.52199219 19.55910156 -1.5625 18.4375 C-1.60568359 17.34501953 -1.64886719 16.25253906 -1.69335938 15.12695312 C-1.79982068 12.41810436 -1.90183516 9.70916008 -2 7 C-2.66 7 -3.32 7 -4 7 C-3.67 5.68 -3.34 4.36 -3 3 C-2.34 3 -1.68 3 -1 3 C-0.67 2.01 -0.34 1.02 0 0 Z " fill="#3791C2" transform="translate(120,19)"/>
<path d="M0 0 C4.45783133 -0.36144578 4.45783133 -0.36144578 6.6875 1.125 C10.21890142 6.16985917 10.26367303 11.47606271 10.125 17.375 C10.11597656 18.11105469 10.10695312 18.84710938 10.09765625 19.60546875 C10.07430144 21.4037888 10.03843836 23.20193911 10 25 C7.24921116 25.91692961 5.64051087 26.10886083 2.8125 26.0625 C0.9253125 26.0315625 0.9253125 26.0315625 -1 26 C-1 25.01 -1 24.02 -1 23 C1.97 23.33 4.94 23.66 8 24 C7.88588196 21.24915453 7.75914051 18.49988053 7.625 15.75 C7.5940625 14.97269531 7.563125 14.19539063 7.53125 13.39453125 C7.35070132 7.87638149 7.35070132 7.87638149 5 3 C2.44480079 2.18828772 2.44480079 2.18828772 0 2 C0 1.34 0 0.68 0 0 Z " fill="#358FC3" transform="translate(165,25)"/>
<path d="M0 0 C4.29 0 8.58 0 13 0 C12.67 0.66 12.34 1.32 12 2 C9.69 2 7.38 2 5 2 C5 2.99 5 3.98 5 5 C6.65 5 8.3 5 10 5 C10.33 6.32 10.66 7.64 11 9 C9.88625 9.474375 8.7725 9.94875 7.625 10.4375 C5.73289006 11.25306463 3.84287291 12.07856355 2 13 C1.33646106 9.8297584 0.90847282 7.44746621 1.5625 4.25 C1.706875 3.5075 1.85125 2.765 2 2 C1.34 1.34 0.68 0.68 0 0 Z " fill="#46A5BB" transform="translate(97,27)"/>
<path d="M0 0 C0.33 0 0.66 0 1 0 C1 8.25 1 16.5 1 25 C0.01 25 -0.98 25 -2 25 C-2 26.32 -2 27.64 -2 29 C-0.68 29.33 0.64 29.66 2 30 C1 31 1 31 -1.5625 31.0625 C-2.366875 31.041875 -3.17125 31.02125 -4 31 C-4 28.69 -4 26.38 -4 24 C-2.68 23.67 -1.36 23.34 0 23 C-0.33 21.68 -0.66 20.36 -1 19 C-1.99 19 -2.98 19 -4 19 C-3.67 18.34 -3.34 17.68 -3 17 C-2.77377919 15.29636178 -2.59111527 13.58671299 -2.4375 11.875 C-2.35371094 10.96492188 -2.26992187 10.05484375 -2.18359375 9.1171875 C-2.12300781 8.41851562 -2.06242188 7.71984375 -2 7 C-1.67 7 -1.34 7 -1 7 C-0.67 4.69 -0.34 2.38 0 0 Z " fill="#45A4BB" transform="translate(155,27)"/>
<path d="M0 0 C0.33 0.66 0.66 1.32 1 2 C2.98 2 4.96 2 7 2 C7.33 1.34 7.66 0.68 8 0 C8 0.99 8 1.98 8 3 C8.66 3 9.32 3 10 3 C10.33 6.3 10.66 9.6 11 13 C10.01 13 9.02 13 8 13 C7.67 10.69 7.34 8.38 7 6 C4.03 5.67 1.06 5.34 -2 5 C-2 3.68 -2 2.36 -2 1 C-1.34 0.67 -0.68 0.34 0 0 Z " fill="#87F6A8" transform="translate(67,36)"/>
<path d="M0 0 C3.0625 0.1875 3.0625 0.1875 5.0625 2.1875 C5.2578125 5.2265625 5.2578125 5.2265625 5.1875 8.8125 C5.16945312 10.00101563 5.15140625 11.18953125 5.1328125 12.4140625 C5.10960937 13.32929687 5.08640625 14.24453125 5.0625 15.1875 C4.0725 15.6825 4.0725 15.6825 3.0625 16.1875 C1.9375 11.4375 1.9375 11.4375 3.0625 9.1875 C3.0625 7.8675 3.0625 6.5475 3.0625 5.1875 C0.7525 5.5175 -1.5575 5.8475 -3.9375 6.1875 C-3.980221 4.52138095 -3.97813832 2.85367115 -3.9375 1.1875 C-2.9375 0.1875 -2.9375 0.1875 0 0 Z " fill="#89F6B3" transform="translate(166.9375,26.8125)"/>
<path d="M0 0 C0.99 0 1.98 0 3 0 C4.1671568 3.50147041 4.13357453 6.32670036 4 10 C3.67 10.66 3.34 11.32 3 12 C1.0625 11.625 1.0625 11.625 -1 11 C-2.50662097 7.98675805 -2.17770373 5.31713623 -2 2 C-1.34 1.34 -0.68 0.68 0 0 Z " fill="#3B98BC" transform="translate(146,32)"/>
<path d="M0 0 C0.99 0.33 1.98 0.66 3 1 C4.04976964 4.14930893 4.10131595 6.38814456 4.0625 9.6875 C4.05347656 10.68136719 4.04445313 11.67523438 4.03515625 12.69921875 C4.02355469 13.45847656 4.01195313 14.21773437 4 15 C2.68 15 1.36 15 0 15 C0 10.05 0 5.1 0 0 Z " fill="#3288D3" transform="translate(85,33)"/>
<path d="M0 0 C0.66 0 1.32 0 2 0 C3.49821059 3.37097383 4 5.20442119 4 9 C4.99 9 5.98 9 7 9 C7 10.65 7 12.3 7 14 C5.576875 14.433125 5.576875 14.433125 4.125 14.875 C0.94788422 15.76825109 0.94788422 15.76825109 -1 18 C-1 15.69 -1 13.38 -1 11 C-0.34 10.67 0.32 10.34 1 10 C1 10.66 1 11.32 1 12 C2.65 12 4.3 12 6 12 C6 11.34 6 10.68 6 10 C4.68 10 3.36 10 2 10 C1.34 6.7 0.68 3.4 0 0 Z " fill="#4CAAC2" transform="translate(45,26)"/>
<path d="M0 0 C2.31 0.33 4.62 0.66 7 1 C7 1.66 7 2.32 7 3 C2.50416856 4.49861048 -0.4042194 5.18177215 -5 4 C-5.99 4.495 -5.99 4.495 -7 5 C-7.68931344 7.34907875 -7.68931344 7.34907875 -8.125 10.0625 C-8.29257812 10.98160156 -8.46015625 11.90070312 -8.6328125 12.84765625 C-8.75398438 13.55792969 -8.87515625 14.26820312 -9 15 C-10.32 15.33 -11.64 15.66 -13 16 C-13 15.34 -13 14.68 -13 14 C-12.34 14 -11.68 14 -11 14 C-11.061875 13.319375 -11.12375 12.63875 -11.1875 11.9375 C-10.94131737 8.08063875 -9.64197838 5.48920406 -8 2 C-5.36 2 -2.72 2 0 2 C0 1.34 0 0.68 0 0 Z " fill="#3A95BF" transform="translate(28,20)"/>
<path d="M0 0 C0.33 0.66 0.66 1.32 1 2 C1.66 2 2.32 2 3 2 C2.67 2.99 2.34 3.98 2 5 C1.34 5 0.68 5 0 5 C0 6.32 0 7.64 0 9 C2.97 9.33 5.94 9.66 9 10 C9 10.33 9 10.66 9 11 C6.36 11 3.72 11 1 11 C1 12.65 1 14.3 1 16 C-0.32 16.33 -1.64 16.66 -3 17 C-2.48517081 11.147205 -1.54642808 5.6702363 0 0 Z " fill="#80EBBB" transform="translate(65,32)"/>
<path d="M0 0 C1.1446875 1.175625 1.1446875 1.175625 2.3125 2.375 C4.90891805 5.07257717 4.90891805 5.07257717 8 7 C8.37125 5.824375 8.37125 5.824375 8.75 4.625 C10.15389099 1.67682892 11.00675737 1.0975223 14 0 C14 0.99 14 1.98 14 3 C13.34 3 12.68 3 12 3 C11.566875 4.1446875 11.566875 4.1446875 11.125 5.3125 C10 8 10 8 8 11 C3.78926767 9.49616703 2.16762883 6.79335044 0 3 C0 2.01 0 1.02 0 0 Z " fill="#7CE2C8" transform="translate(22,41)"/>
<path d="M0 0 C1.32 0.33 2.64 0.66 4 1 C6.42857143 8.42857143 6.42857143 8.42857143 5 12 C4.67 11.34 4.34 10.68 4 10 C3.01 10 2.02 10 1 10 C0.67 9.01 0.34 8.02 0 7 C-0.99 6.34 -1.98 5.68 -3 5 C-2.34 5 -1.68 5 -1 5 C-0.67 3.35 -0.34 1.7 0 0 Z " fill="#71D8BA" transform="translate(87,27)"/>
<path d="M0 0 C0 0.66 0 1.32 0 2 C-1.65 2 -3.3 2 -5 2 C-5 2.66 -5 3.32 -5 4 C-3.35 4 -1.7 4 0 4 C-0.33 5.65 -0.66 7.3 -1 9 C-2.98 9.33 -4.96 9.66 -7 10 C-7.29296875 3.9453125 -7.29296875 3.9453125 -7 2 C-4 0 -4 0 0 0 Z " fill="#7FE9B8" transform="translate(108,36)"/>
<path d="M0 0 C0.99 0 1.98 0 3 0 C3 2.97 3 5.94 3 9 C2.01 9.33 1.02 9.66 0 10 C0 9.34 0 8.68 0 8 C-0.99 8.33 -1.98 8.66 -3 9 C-3.33 8.01 -3.66 7.02 -4 6 C-3.34 6 -2.68 6 -2 6 C-1.855625 5.195625 -1.71125 4.39125 -1.5625 3.5625 C-1 1 -1 1 0 0 Z " fill="#3286DB" transform="translate(32,30)"/>
<path d="M0 0 C-0.65690619 3.78239671 -1.720131 7.21841526 -3.0625 10.8125 C-3.42472656 11.78832031 -3.78695312 12.76414062 -4.16015625 13.76953125 C-4.43730469 14.50558594 -4.71445313 15.24164063 -5 16 C-6.9451 13.08235 -7.45276317 11.37462715 -8 8 C-6.68 8.33 -5.36 8.66 -4 9 C-4.33 6.36 -4.66 3.72 -5 1 C-2 0 -2 0 0 0 Z " fill="#3790CA" transform="translate(135,21)"/>
<path d="M0 0 C3.20878901 3.90329402 3.94276458 7.12045189 5 12 C4.01 12 3.02 12 2 12 C2.33 12.66 2.66 13.32 3 14 C5.32156597 14.40729228 7.6568787 14.74438677 10 15 C10 15.66 10 16.32 10 17 C6.625 17.125 6.625 17.125 3 17 C0.19521487 14.19521487 0.03891639 12.11456528 -0.09765625 8.203125 C-0.08605469 7.22859375 -0.07445312 6.2540625 -0.0625 5.25 C-0.05347656 4.26515625 -0.04445312 3.2803125 -0.03515625 2.265625 C-0.02355469 1.51796875 -0.01195312 0.7703125 0 0 Z " fill="#79E0BF" transform="translate(141,32)"/>
<path d="M0 0 C2.31 0 4.62 0 7 0 C7.66 3.3 8.32 6.6 9 10 C9.66 9.01 10.32 8.02 11 7 C11 9.31 11 11.62 11 14 C9.68 14 8.36 14 7 14 C6.67 10.37 6.34 6.74 6 3 C3.03 2.505 3.03 2.505 0 2 C0 1.34 0 0.68 0 0 Z " fill="#409CC3" transform="translate(6,38)"/>
<path d="M0 0 C2.0625 0.1875 2.0625 0.1875 4 1 C4.33 1.99 4.66 2.98 5 4 C3.35 4.33 1.7 4.66 0 5 C-0.33 7.97 -0.66 10.94 -1 14 C-0.34 14 0.32 14 1 14 C0.67 14.66 0.34 15.32 0 16 C-2.475 15.01 -2.475 15.01 -5 14 C-5.33 15.32 -5.66 16.64 -6 18 C-6 16.35 -6 14.7 -6 13 C-4.68 13 -3.36 13 -2 13 C-2.02320313 12.22914062 -2.04640625 11.45828125 -2.0703125 10.6640625 C-2.08835937 9.66117188 -2.10640625 8.65828125 -2.125 7.625 C-2.14820313 6.62726562 -2.17140625 5.62953125 -2.1953125 4.6015625 C-2 2 -2 2 0 0 Z " fill="#3E9CB6" transform="translate(23,26)"/>
<path d="M0 0 C1.0115466 4.04618642 0.87593801 6.09342774 0.1875 10.125 C0.01605469 11.17945313 -0.15539062 12.23390625 -0.33203125 13.3203125 C-1 16 -1 16 -3 18 C-3 17.01 -3 16.02 -3 15 C-3.99 14.67 -4.98 14.34 -6 14 C-5.67 12.68 -5.34 11.36 -5 10 C-4.67 10.33 -4.34 10.66 -4 11 C-2.68 7.37 -1.36 3.74 0 0 Z " fill="#7CE5BB" transform="translate(134,24)"/>
<path d="M0 0 C-0.33 5.61 -0.66 11.22 -1 17 C-1.33 17 -1.66 17 -2 17 C-2.66 12.38 -3.32 7.76 -4 3 C-5.98 2.34 -7.96 1.68 -10 1 C-6.0365245 -1.59150321 -5.34346075 -0.89057679 0 0 Z " fill="#328BC2" transform="translate(156,26)"/>
<path d="M0 0 C0.33 0 0.66 0 1 0 C1 8.58 1 17.16 1 26 C-0.65 26.33 -2.3 26.66 -4 27 C-4 25.68 -4 24.36 -4 23 C-3.01 22.67 -2.02 22.34 -1 22 C-0.67 14.74 -0.34 7.48 0 0 Z " fill="#88F6B0" transform="translate(157,29)"/>
<path d="M0 0 C-0.99 0.66 -1.98 1.32 -3 2 C-3.16666667 5 -3.16666667 5 -3 8 C-3.33 8.66 -3.66 9.32 -4 10 C-3.01 10.33 -2.02 10.66 -1 11 C-3.4375 10.625 -3.4375 10.625 -6 10 C-7.60725635 6.78548731 -7.05748185 3.56387464 -7 0 C-3.86650268 -1.04449911 -3.01031744 -0.93423645 0 0 Z " fill="#7EE8BD" transform="translate(169,38)"/>
<path d="M0 0 C0.66 0 1.32 0 2 0 C2 7.92 2 15.84 2 24 C1.67 24 1.34 24 1 24 C1 19.71 1 15.42 1 11 C0.34 11 -0.32 11 -1 11 C-0.67 7.37 -0.34 3.74 0 0 Z " fill="#88F8A4" transform="translate(135,23)"/>
<path d="M0 0 C0 2.97 0 5.94 0 9 C1.32 9.33 2.64 9.66 4 10 C4 11.98 4 13.96 4 16 C3.34 14.68 2.68 13.36 2 12 C0.02 12 -1.96 12 -4 12 C-4 10.68 -4 9.36 -4 8 C-3.01 8 -2.02 8 -1 8 C-1 6.35 -1 4.7 -1 3 C-2.32 2.67 -3.64 2.34 -5 2 C-1.125 0 -1.125 0 0 0 Z " fill="#3A96BF" transform="translate(88,16)"/>
<path d="M0 0 C0.66 0 1.32 0 2 0 C2.33 1.65 2.66 3.3 3 5 C0.29120665 6.35439668 -2.00933268 6.06501451 -5 6 C-4.67 5.34 -4.34 4.68 -4 4 C-2.35 4 -0.7 4 1 4 C0.67 2.68 0.34 1.36 0 0 Z M1 6 C1 7.98 1 9.96 1 12 C-0.32 12 -1.64 12 -3 12 C-2.625 9.5625 -2.625 9.5625 -2 7 C0 6 0 6 1 6 Z " fill="#74DDB2" transform="translate(168,32)"/>
<path d="M0 0 C0.33 0 0.66 0 1 0 C1 4.95 1 9.9 1 15 C0.67 15 0.34 15 0 15 C-0.33 13.35 -0.66 11.7 -1 10 C-1.33 10.66 -1.66 11.32 -2 12 C-3.32 12 -4.64 12 -6 12 C-5 10 -5 10 -3.5625 8.25 C-1.73382058 5.61670164 -0.90429457 3.06068931 0 0 Z " fill="#46A7B0" transform="translate(134,34)"/>
<path d="M0 0 C0.66 0 1.32 0 2 0 C1.33333333 3.33333333 0.66666667 6.66666667 0 10 C-0.99 10 -1.98 10 -3 10 C-3.144375 8.88625 -3.28875 7.7725 -3.4375 6.625 C-3.78372035 3.17857953 -3.78372035 3.17857953 -5 1 C-4.01 1 -3.02 1 -2 1 C-2 1.66 -2 2.32 -2 3 C-1.34 3 -0.68 3 0 3 C0 2.01 0 1.02 0 0 Z " fill="#368DD0" transform="translate(17,24)"/>
<path d="M0 0 C-1 3 -1 3 -3 4.875 C-5.27060644 7.28751935 -5.64008575 8.76077175 -6 12 C-6.33 12 -6.66 12 -7 12 C-7 8.37 -7 4.74 -7 1 C-4.53721199 -0.231394 -2.7204945 -0.07159196 0 0 Z " fill="#87F5AA" transform="translate(149,29)"/>
<path d="M0 0 C1.73684533 3.47369066 2.30084112 5.07619937 2.625 8.75 C2.69976562 9.54921875 2.77453125 10.3484375 2.8515625 11.171875 C2.92503906 12.07679687 2.92503906 12.07679687 3 13 C1.68 13.33 0.36 13.66 -1 14 C-1.33 15.32 -1.66 16.64 -2 18 C-2 16.35 -2 14.7 -2 13 C-1.34 13 -0.68 13 0 13 C0 8.71 0 4.42 0 0 Z " fill="#4AA9C0" transform="translate(89,38)"/>
<path d="M0 0 C0.33 1.32 0.66 2.64 1 4 C2.65 3.67 4.3 3.34 6 3 C6.33 4.32 6.66 5.64 7 7 C4.69 7.66 2.38 8.32 0 9 C0 6.03 0 3.06 0 0 Z " fill="#3D99BC" transform="translate(162,29)"/>
<path d="M0 0 C0.33 0 0.66 0 1 0 C1 2.31 1 4.62 1 7 C2.65 7 4.3 7 6 7 C6 5.35 6 3.7 6 2 C6.99 2.33 7.98 2.66 9 3 C7.52307692 7.67692308 7.52307692 7.67692308 4.875 9.3125 C3.946875 9.6528125 3.946875 9.6528125 3 10 C0.9375 8.375 0.9375 8.375 -1 6 C-0.75 2.75 -0.75 2.75 0 0 Z " fill="#328AC9" transform="translate(133,42)"/>
<path d="M0 0 C0.66 0 1.32 0 2 0 C2 3.3 2 6.6 2 10 C1.01 10.495 1.01 10.495 0 11 C-1.49297212 8.01405576 -1.11755228 5.29146376 -1 2 C-0.67 1.34 -0.34 0.68 0 0 Z " fill="#338CC7" transform="translate(78,33)"/>
<path d="M0 0 C0.66 0.33 1.32 0.66 2 1 C1.01 5.62 0.02 10.24 -1 15 C-1.33 15 -1.66 15 -2 15 C-2 10.38 -2 5.76 -2 1 C-1.34 0.67 -0.68 0.34 0 0 Z " fill="#338CC3" transform="translate(141,27)"/>
<path d="M0 0 C3.00617269 3.00617269 2.59585316 5.82381598 3 10 C4.32 10 5.64 10 7 10 C7 10.66 7 11.32 7 12 C5.35 12 3.7 12 2 12 C2 10.68 2 9.36 2 8 C1.34 8 0.68 8 0 8 C0 5.36 0 2.72 0 0 Z " fill="#85EFBF" transform="translate(44,26)"/>
<path d="M0 0 C1.4540625 0.0309375 1.4540625 0.0309375 2.9375 0.0625 C3.5975 1.3825 4.2575 2.7025 4.9375 4.0625 C2.6275 3.7325 0.3175 3.4025 -2.0625 3.0625 C-1.0725 3.7225 -0.0825 4.3825 0.9375 5.0625 C-0.7125 5.3925 -2.3625 5.7225 -4.0625 6.0625 C-4.105221 4.39638095 -4.10313832 2.72867115 -4.0625 1.0625 C-3.0625 0.0625 -3.0625 0.0625 0 0 Z " fill="#79E1C1" transform="translate(167.0625,26.9375)"/>
<path d="M0 0 C1.98 0.495 1.98 0.495 4 1 C4.33 2.65 4.66 4.3 5 6 C4.01 5.67 3.02 5.34 2 5 C1.67 5.66 1.34 6.32 1 7 C0.34 7 -0.32 7 -1 7 C-0.67 4.69 -0.34 2.38 0 0 Z " fill="#358CD0" transform="translate(18,40)"/>
<path d="M0 0 C0.66 0 1.32 0 2 0 C2.33 0.66 2.66 1.32 3 2 C3.66 1.67 4.32 1.34 5 1 C5.33 2.98 5.66 4.96 6 7 C4.125 6.6875 4.125 6.6875 2 6 C0 3 0 3 0 0 Z " fill="#358CCD" transform="translate(125,23)"/>
<path d="M0 0 C0.66 0 1.32 0 2 0 C2.33 2.97 2.66 5.94 3 9 C1.68 9 0.36 9 -1 9 C-0.67 6.03 -0.34 3.06 0 0 Z " fill="#40A0AB" transform="translate(69,29)"/>
<path d="M0 0 C0.99 0.33 1.98 0.66 3 1 C2.34 1 1.68 1 1 1 C1 2.65 1 4.3 1 6 C2.32 6.33 3.64 6.66 5 7 C4 8 4 8 1.4375 8.0625 C0.633125 8.041875 -0.17125 8.02125 -1 8 C-1.04241723 5.66705225 -1.04092937 3.33297433 -1 1 C-0.67 0.67 -0.34 0.34 0 0 Z " fill="#419DC1" transform="translate(152,50)"/>
<path d="M0 0 C0.33 0.99 0.66 1.98 1 3 C2.98 3 4.96 3 7 3 C6.67 3.66 6.34 4.32 6 5 C4.33499557 5.34153937 2.66821323 5.67449498 1 6 C0.34 6.66 -0.32 7.32 -1 8 C-1.04241723 5.66705225 -1.04092937 3.33297433 -1 1 C-0.67 0.67 -0.34 0.34 0 0 Z " fill="#3B97C2" transform="translate(45,36)"/>
<path d="M0 0 C0.99 0.33 1.98 0.66 3 1 C2.34 3.97 1.68 6.94 1 10 C0.34 10 -0.32 10 -1 10 C-1.125 3.375 -1.125 3.375 0 0 Z " fill="#86F0BF" transform="translate(97,28)"/>
<path d="M0 0 C0.66 0 1.32 0 2 0 C1.71640113 1.4391134 1.42278601 2.87625518 1.125 4.3125 C0.88136719 5.51326172 0.88136719 5.51326172 0.6328125 6.73828125 C0 9 0 9 -2 12 C-2.33 9.36 -2.66 6.72 -3 4 C-2.34 4 -1.68 4 -1 4 C-0.67 2.68 -0.34 1.36 0 0 Z " fill="#3C9AB5" transform="translate(95,28)"/>
<path d="M0 0 C1.32 0 2.64 0 4 0 C4 1.65 4 3.3 4 5 C2.68 5.33 1.36 5.66 0 6 C0 4.02 0 2.04 0 0 Z " fill="#7BE3C0" transform="translate(156,18)"/>
<path d="M0 0 C1.32 0.66 2.64 1.32 4 2 C2.515 4.475 2.515 4.475 1 7 C0.34 6.34 -0.32 5.68 -1 5 C-0.625 2.375 -0.625 2.375 0 0 Z " fill="#3892C5" transform="translate(99,33)"/>
<path d="M0 0 C0.66 0.33 1.32 0.66 2 1 C2 2.32 2 3.64 2 5 C0.35 5 -1.3 5 -3 5 C-3 3.68 -3 2.36 -3 1 C-2.01 0.67 -1.02 0.34 0 0 Z " fill="#87F3B3" transform="translate(91,51)"/>
<path d="M0 0 C0.66 0 1.32 0 2 0 C2 0.99 2 1.98 2 3 C1.34 3 0.68 3 0 3 C-0.66 4.65 -1.32 6.3 -2 8 C-2.66 7.67 -3.32 7.34 -4 7 C-2.92598892 4.08482708 -2.22189824 2.22189824 0 0 Z " fill="#74D9C9" transform="translate(34,41)"/>
<path d="M0 0 C1.10844919 3.32534757 0.84454356 5.62182575 0 9 C-0.99 8.67 -1.98 8.34 -3 8 C-2.45276317 4.62537285 -1.9451 2.91765 0 0 Z " fill="#89F9A6" transform="translate(95,39)"/>
<path d="M0 0 C0.33 0 0.66 0 1 0 C1.33 3.3 1.66 6.6 2 10 C1.01 10 0.02 10 -1 10 C-1.33 8.35 -1.66 6.7 -2 5 C-1.34 5 -0.68 5 0 5 C0 3.35 0 1.7 0 0 Z " fill="#7DE5C2" transform="translate(76,39)"/>
<path d="M0 0 C1.32 0 2.64 0 4 0 C3.74438677 2.3431213 3.40729228 4.67843403 3 7 C2.01 7.495 2.01 7.495 1 8 C0.67 5.36 0.34 2.72 0 0 Z " fill="#348CCB" transform="translate(60,36)"/>
<path d="M0 0 C2.475 0.495 2.475 0.495 5 1 C4.34 3.31 3.68 5.62 3 8 C1.0549 5.08235 0.54723683 3.37462715 0 0 Z " fill="#3A97B6" transform="translate(127,29)"/>
<path d="M0 0 C0.33 0.99 0.66 1.98 1 3 C-0.32 3 -1.64 3 -3 3 C-3 3.99 -3 4.98 -3 6 C-3.99 6 -4.98 6 -6 6 C-6.33 4.68 -6.66 3.36 -7 2 C-4.3333581 0.66667905 -2.83319697 1.32897967 0 2 C0 1.34 0 0.68 0 0 Z " fill="#3791C5" transform="translate(9,32)"/>
<path d="M0 0 C1.9375 0.3125 1.9375 0.3125 4 1 C4.33 1.99 4.66 2.98 5 4 C3.02 4.33 1.04 4.66 -1 5 C-0.67 3.35 -0.34 1.7 0 0 Z " fill="#3A95C3" transform="translate(23,26)"/>
<path d="M0 0 C0.33 0 0.66 0 1 0 C1.144375 0.763125 1.28875 1.52625 1.4375 2.3125 C1.9632594 5.08172908 1.9632594 5.08172908 3 8 C1.68 8.33 0.36 8.66 -1 9 C-0.67 6.03 -0.34 3.06 0 0 Z " fill="#77DDC7" transform="translate(63,40)"/>
<path d="M0 0 C0.99 0 1.98 0 3 0 C3 1.98 3 3.96 3 6 C2.01 6.33 1.02 6.66 0 7 C0 4.69 0 2.38 0 0 Z " fill="#3288D1" transform="translate(145,35)"/>
<path d="M0 0 C1.66611905 -0.042721 3.33382885 -0.04063832 5 0 C6 1 6 1 6.0625 4.0625 C6.041875 5.031875 6.02125 6.00125 6 7 C5.67 5.68 5.34 4.36 5 3 C2.03 2.505 2.03 2.505 -1 2 C-0.67 1.34 -0.34 0.68 0 0 Z " fill="#89FAA3" transform="translate(165,29)"/>
<path d="M0 0 C1.32 0 2.64 0 4 0 C3.67 1.65 3.34 3.3 3 5 C2.01 4.67 1.02 4.34 0 4 C0 2.68 0 1.36 0 0 Z " fill="#3E9EAC" transform="translate(165,40)"/>
<path d="M0 0 C1.32 0 2.64 0 4 0 C3.67 1.65 3.34 3.3 3 5 C2.01 4.67 1.02 4.34 0 4 C0 2.68 0 1.36 0 0 Z " fill="#3E9BB6" transform="translate(104,40)"/>
<path d="M0 0 C0.99 0 1.98 0 3 0 C3 0.99 3 1.98 3 3 C1.68 3 0.36 3 -1 3 C-1 4.98 -1 6.96 -1 9 C-1.33 9 -1.66 9 -2 9 C-2.125 5.625 -2.125 5.625 -2 2 C-1.34 1.34 -0.68 0.68 0 0 Z " fill="#47A7B8" transform="translate(146,32)"/>
<path d="M0 0 C1.32 0.33 2.64 0.66 4 1 C4 2.98 4 4.96 4 7 C2 5.75 2 5.75 0 4 C0 2.68 0 1.36 0 0 Z " fill="#45A4BA" transform="translate(97,38)"/>
<path d="M0 0 C-0.99 0.66 -1.98 1.32 -3 2 C-4.19232613 4.05003955 -4.19232613 4.05003955 -5 6 C-5.33 4.02 -5.66 2.04 -6 0 C-3.50907189 -1.24546405 -2.58919267 -0.7767578 0 0 Z " fill="#89F6B6" transform="translate(169,38)"/>
<path d="M0 0 C0.5775 0.556875 1.155 1.11375 1.75 1.6875 C1.75 2.3475 1.75 3.0075 1.75 3.6875 C-1.2219385 2.56298273 -3.58440687 1.46456209 -6.25 -0.3125 C-3.46686179 -1.40587572 -2.65053646 -1.54614627 0 0 Z " fill="#3890CE" transform="translate(152.25,26.3125)"/>
<path d="M0 0 C1.32 0.33 2.64 0.66 4 1 C3.34 3.31 2.68 5.62 2 8 C0.23537317 4.91190305 0 3.76687864 0 0 Z " fill="#3691BF" transform="translate(78,20)"/>
</svg>
